<svg xmlns="http://www.w3.org/2000/svg" width="35.436" height="35.435" viewBox="0 0 35.436 35.435"><path d="M39.085,26.518l-2.2-1.313a2.888,2.888,0,0,1,0-4.959l2.2-1.314a2.785,2.785,0,0,0-2.109-5.092l-2.486.628a2.888,2.888,0,0,1-3.5-3.509l.627-2.483a2.786,2.786,0,0,0-5.093-2.11L25.209,8.56a2.9,2.9,0,0,1-2.494,1.415,2.872,2.872,0,0,1-2.465-1.4L18.926,6.357a2.785,2.785,0,0,0-5.083,2.128l.625,2.474a2.888,2.888,0,0,1-3.5,3.509L8.476,13.84a2.786,2.786,0,0,0-2.11,5.093l2.2,1.313a2.888,2.888,0,0,1,0,4.959l-2.213,1.32a2.785,2.785,0,0,0,2.128,5.083l2.478-.626a2.888,2.888,0,0,1,3.5,3.509l-.627,2.483a2.786,2.786,0,0,0,5.093,2.11l1.315-2.2a2.888,2.888,0,0,1,4.959,0l1.308,2.191a2.785,2.785,0,0,0,5.1-2.089l-.635-2.514a2.856,2.856,0,0,1,.749-2.718l.022-.022a2.863,2.863,0,0,1,2.726-.752l2.5.631a2.786,2.786,0,0,0,2.11-5.093ZM25.325,29A6.793,6.793,0,1,1,29,20.126,6.793,6.793,0,0,1,25.325,29Z" transform="translate(-5.008 -5.008)"/></svg>