<svg xmlns="http://www.w3.org/2000/svg" width="33" height="33" viewBox="0 0 33 33"><path d="M21.5,38A16.5,16.5,0,1,1,38,21.5,16.525,16.525,0,0,1,21.5,38Zm0-30.066A13.567,13.567,0,1,0,35.066,21.5,13.583,13.583,0,0,0,21.5,7.933Z" transform="translate(-5 -5)"/><path d="M36.323,28.532a1.438,1.438,0,0,1-1.393-1.76c0-.037.037-.073.037-.147a4.634,4.634,0,0,1,.953-1.833,4.556,4.556,0,0,1,1.613-1.283,6.123,6.123,0,0,1,1.907-.623,5.984,5.984,0,0,1,1.98.037,5.727,5.727,0,0,1,1.943.733,5.117,5.117,0,0,1,1.613,1.467,5.063,5.063,0,0,1,.88,1.98c.037.183.073.33.11.513a2.421,2.421,0,0,1,.037.513,3.257,3.257,0,0,1-.037,1.027,4.883,4.883,0,0,1-.7,2.053,6.48,6.48,0,0,1-1.247,1.5,10.742,10.742,0,0,1-1.32,1.027l-.513.33a2.034,2.034,0,0,0-.293.22,1.126,1.126,0,0,0-.33.587,4.421,4.421,0,0,0-.11,1.1v.147a1.423,1.423,0,0,1-2.823.257.22.22,0,0,0-.037-.147,8.9,8.9,0,0,1-.11-1.8,4.169,4.169,0,0,1,.77-2.09,3.93,3.93,0,0,1,.733-.807l.4-.33.257-.22a5.534,5.534,0,0,0,1.467-1.54,2.226,2.226,0,0,0,.183-.66v-.4a.465.465,0,0,0-.037-.22.275.275,0,0,0-.037-.183,2.751,2.751,0,0,0-.293-.66,2.272,2.272,0,0,0-.513-.513,2.7,2.7,0,0,0-1.65-.4,2.512,2.512,0,0,0-1.577.587,1.8,1.8,0,0,0-.587.77A1.382,1.382,0,0,1,36.323,28.532Z" transform="translate(-23.929 -16.285)"/><circle cx="1.467" cy="1.467" r="1.467" transform="translate(14.74 23.136)"/></svg>