<svg xmlns="http://www.w3.org/2000/svg" width="32.37" height="37.934" viewBox="0 0 32.37 37.934"><g transform="translate(-10 -3.15)"><g transform="translate(10 3.15)"><path d="M40.833,14.581,27.723,3.7a2.494,2.494,0,0,0-3.116,0L11.457,14.581A4.016,4.016,0,0,0,10,17.7V37a4.058,4.058,0,0,0,4.046,4.046H18.9a2.435,2.435,0,0,0,2.428-2.428V30.2a1.623,1.623,0,0,1,1.619-1.619h6.474A1.623,1.623,0,0,1,31.041,30.2v8.457a2.435,2.435,0,0,0,2.428,2.428h4.856a4.058,4.058,0,0,0,4.046-4.046V17.7A4.452,4.452,0,0,0,40.833,14.581Z" transform="translate(-10 -3.15)"/></g></g></svg>