<svg xmlns="http://www.w3.org/2000/svg" width="49.158" height="30.667" viewBox="0 0 49.158 30.667"><path d="M49,12.991Q46.839,7.625,44.685,2.257A2.977,2.977,0,0,0,41.49,0a3.487,3.487,0,0,0-3.007,2.259q-3.361,9.047-6.715,18.091-3.036-5.58-6.083-11.159a2.643,2.643,0,0,0-2.279-1.467A2.566,2.566,0,0,0,20.39,9.191q-2.834,5.668-5.669,11.335L9.873,14.707a2.5,2.5,0,0,0-3.63-.416,4.141,4.141,0,0,0-1.187,1.034q-2.3,3.073-4.6,6.137c-1.006,1.342-.219,3.423,1.1,4.2a3.137,3.137,0,0,0,4.2-1.1c.692-.923,1.38-1.845,2.076-2.768q2.687,3.225,5.376,6.454a2.445,2.445,0,0,0,2.665.883,2.541,2.541,0,0,0,2.15-1.5q2.565-5.134,5.137-10.269,3.216,5.9,6.433,11.8c1.257,2.3,3.965,1.694,5.128.032a3.277,3.277,0,0,0,.719-1.15Q38.57,19.6,41.694,11.17q.692,1.725,1.389,3.453a3.13,3.13,0,0,0,3.768,2.141C48.331,16.357,49.619,14.546,49,12.991Z" transform="translate(0.001)"/></svg>