<svg xmlns="http://www.w3.org/2000/svg" width="27.646" height="35.443" viewBox="0 0 27.646 35.443"><path d="M42.7,56.323c-1.139-1.165-3.846-1.887-5.383-1.923-.226.151-.261.266-.261.266l.443,2.215H33.952l-.665,1.551V70.172H31.958V58.432l-.665-1.551H27.749l.443-2.215s-.035-.115-.261-.266c-1.551.035-4.266.766-5.41,1.949C19.6,59.371,18.933,65.339,18.8,70.172H46.446C46.313,65.321,45.639,59.335,42.7,56.323Z" transform="translate(-18.8 -34.729)"/><path d="M40.388,28.829a6.7,6.7,0,0,0,6.779-5.02c1.272-4.811,1-7.142.842-7.975-.6-3.314-4-5.835-7.62-5.835s-7.018,2.521-7.625,5.822c-.155.846-.443,3.177.842,7.975A6.733,6.733,0,0,0,40.388,28.829Z" transform="translate(-26.498 -10)"/></svg>